<?xml version="1.0" encoding="UTF-8" standalone="no"?>
<!-- Created with Inkscape (http://www.inkscape.org/) -->

<svg
   width="233.66864mm"
   height="233.66864mm"
   viewBox="0 0 233.66864 233.66865"
   version="1.1"
   id="svg5"
   inkscape:version="1.1 (ce6663b3b7, 2021-05-25)"
   sodipodi:docname="seb-logo.svg"
   xmlns:inkscape="http://www.inkscape.org/namespaces/inkscape"
   xmlns:sodipodi="http://sodipodi.sourceforge.net/DTD/sodipodi-0.dtd"
   xmlns="http://www.w3.org/2000/svg"
   xmlns:svg="http://www.w3.org/2000/svg">
  <sodipodi:namedview
     id="namedview7"
     pagecolor="#ffffff"
     bordercolor="#cccccc"
     borderopacity="1"
     inkscape:pageshadow="0"
     inkscape:pageopacity="1"
     inkscape:pagecheckerboard="0"
     inkscape:document-units="mm"
     showgrid="false"
     inkscape:zoom="0.15118276"
     inkscape:cx="297.65299"
     inkscape:cy="-152.13375"
     inkscape:window-width="1366"
     inkscape:window-height="702"
     inkscape:window-x="0"
     inkscape:window-y="34"
     inkscape:window-maximized="1"
     inkscape:current-layer="layer1">
    <inkscape:grid
       type="xygrid"
       id="grid824"
       originx="0.19516545"
       originy="-8.8130137" />
  </sodipodi:namedview>
  <defs
     id="defs2">
    <inkscape:path-effect
       effect="spiro"
       id="path-effect986"
       is_visible="true"
       lpeversion="1" />
    <inkscape:path-effect
       effect="spiro"
       id="path-effect982"
       is_visible="true"
       lpeversion="1" />
  </defs>
  <g
     inkscape:label="Layer 1"
     inkscape:groupmode="layer"
     id="layer1"
     transform="translate(0.19516544,-8.8130131)">
    <rect
       style="fill:#000000;stroke:none;stroke-width:2.22945;stroke-linecap:round;stroke-linejoin:round"
       id="rect862"
       width="233.66864"
       height="233.66864"
       x="-0.19516544"
       y="8.8130131" />
    <g
       id="g1097"
       transform="translate(-2.4233439,-6.6443319)">
      <path
         id="path980"
         style="fill:#ffffff;fill-opacity:1;stroke:none;stroke-width:0.999999px;stroke-linecap:butt;stroke-linejoin:miter;stroke-opacity:1"
         d="m 640,420 c -47.12389,0 -93.95767,19.39908 -127.2793,52.7207 -18.88657,18.88658 -33.28656,42.11852 -42.23047,67.2793 h 43.17188 c 6.82767,-14.42415 16.05662,-27.70701 27.34375,-38.99414 C 566.92268,475.08904 603.34809,460 640,460 c 36.65191,0 73.07732,15.08904 98.99414,41.00586 C 764.91096,526.92268 780,563.34809 780,600 c 0,36.65191 -15.08904,73.07732 -41.00586,98.99414 C 713.07732,724.91096 676.65191,740 640,740 603.34809,740 566.92268,724.91096 541.00586,698.99414 529.71873,687.70701 520.48978,674.42415 513.66211,660 h -43.17188 c 8.94391,25.16078 23.3439,48.39272 42.23047,67.2793 C 546.04233,760.60092 592.87611,780 640,780 687.12389,780 733.95767,760.60092 767.2793,727.2793 800.60092,693.95767 820,647.12389 820,600 820,552.87611 800.60092,506.04233 767.2793,472.7207 733.95767,439.39908 687.12389,420 640,420 Z"
         transform="scale(0.26458333)" />
      <path
         id="path859"
         style="fill:#ffffff;stroke:none;stroke-width:0.999999px;stroke-linecap:butt;stroke-linejoin:miter;stroke-opacity:1"
         d="m 80,220 180,560 h 60 40 L 527.14258,260 H 820 V 220 H 540 500 L 340,717.77734 180,220 h -20 -20 -20 -20 z"
         transform="scale(0.26458333)" />
      <path
         id="path1317"
         style="fill:#ffff00;stroke:none;stroke-width:0.999999px;stroke-linecap:butt;stroke-linejoin:miter;stroke-opacity:1"
         d="m 106.42773,240 167.14454,520 h 40 L 146.42773,240 Z"
         transform="scale(0.26458333)" />
      <path
         id="path1352"
         style="fill:#ff0000;stroke:none;stroke-width:0.999999px;stroke-linecap:butt;stroke-linejoin:miter;stroke-opacity:1"
         d="m 126.42773,240 167.14454,520 h 40 L 166.42773,240 Z"
         transform="scale(0.26458333)" />
      <path
         id="path1387"
         style="fill:#000000;stroke:none;stroke-width:0.999999px;stroke-linecap:butt;stroke-linejoin:miter;stroke-opacity:1"
         d="m 146.42773,240 167.14454,520 h 20 L 166.42773,240 Z"
         transform="scale(0.26458333)" />
      <g
         aria-label="S E B"
         id="text4447"
         style="font-size:13.9135px;fill:#ffffff;stroke:#ffffff;stroke-width:0.347838">
        <g
           id="path9560">
          <path
             style="color:#000000;stroke:none;-inkscape-stroke:none"
             d="m 129.31905,154.00459 v 1.33836 q -0.78128,-0.37365 -1.47423,-0.55708 -0.69296,-0.18343 -1.33836,-0.18343 -1.12096,0 -1.7324,0.4348 -0.60464,0.43479 -0.60464,1.23645 0,0.67258 0.40083,1.01905 0.40763,0.33969 1.53538,0.55029 l 0.82883,0.16985 q 1.53538,0.29213 2.2623,1.03264 0.73372,0.73372 0.73372,1.97017 0,1.47424 -0.99188,2.23513 -0.98508,0.76089 -2.89411,0.76089 -0.72014,0 -1.53538,-0.16304 -0.80845,-0.16305 -1.67804,-0.48236 v -1.41309 q 0.83562,0.46877 1.63728,0.70655 0.80165,0.23778 1.57614,0.23778 1.17531,0 1.81391,-0.46197 0.63861,-0.46198 0.63861,-1.31798 0,-0.74731 -0.46197,-1.16852 -0.45518,-0.42121 -1.50141,-0.63181 l -0.83562,-0.16305 q -1.53538,-0.30572 -2.22154,-0.95791 -0.68617,-0.6522 -0.68617,-1.81392 0,-1.34515 0.94433,-2.11964 0.95112,-0.77448 2.61557,-0.77448 0.71334,0 1.45385,0.12908 0.74052,0.12908 1.515,0.38724 z"
             id="path9587" />
          <path
             style="color:#000000;stroke:none;-inkscape-stroke:none"
             d="m 126.34961,153.31445 c -1.13661,0 -2.05201,0.26482 -2.72461,0.8125 v 0.002 c -0.66773,0.54763 -1.00781,1.31644 -1.00781,2.2539 0,0.80872 0.24541,1.46913 0.74023,1.93946 0.49456,0.47007 1.26469,0.79448 2.30664,1.00195 l 0.83594,0.16406 c 0.68028,0.13694 1.15071,0.34239 1.41602,0.58789 l 0.002,0.002 c 0.27014,0.24631 0.4043,0.5767 0.4043,1.03907 0,0.52741 -0.182,0.89964 -0.56641,1.17773 -0.38468,0.27828 -0.95019,0.42774 -1.71094,0.42774 -0.49853,0 -1.00755,-0.0763 -1.52734,-0.23047 -0.52036,-0.15435 -1.05424,-0.38437 -1.60156,-0.69141 l -0.25977,-0.14453 v 1.83203 l 0.11523,0.041 c 0.58711,0.21558 1.15444,0.37957 1.70313,0.49023 0.55315,0.11063 1.07709,0.16602 1.57031,0.16602 1.29579,0 2.30027,-0.25639 3,-0.79688 0.70429,-0.54027 1.0586,-1.35121 1.0586,-2.37305 0,-0.85799 -0.26038,-1.56823 -0.78321,-2.09179 -0.51913,-0.52884 -1.30748,-0.8831 -2.35156,-1.08203 h -0.002 l -0.82813,-0.16993 h -0.002 c -0.73896,-0.13799 -1.23034,-0.32639 -1.45508,-0.51367 -0.22307,-0.19445 -0.33789,-0.47282 -0.33789,-0.88476 0,-0.49001 0.17037,-0.83361 0.53125,-1.09375 0.36672,-0.26078 0.90604,-0.4043 1.63086,-0.4043 0.41379,0 0.84586,0.0589 1.29492,0.17773 0.44936,0.11895 0.93057,0.30164 1.44336,0.54688 l 0.24805,0.11914 v -1.74023 l -0.11719,-0.0391 c -0.52385,-0.17461 -1.03812,-0.30687 -1.54102,-0.39453 -0.50298,-0.0877 -0.99832,-0.13086 -1.48437,-0.13086 z m 0,0.34766 c 0.46507,0 0.93946,0.0425 1.42383,0.12695 0.44566,0.0777 0.90483,0.19989 1.37109,0.34961 v 0.95313 c -0.43355,-0.19348 -0.86001,-0.36983 -1.25586,-0.47461 -0.47488,-0.12571 -0.93607,-0.18946 -1.38281,-0.18946 -0.76979,0 -1.3835,0.14785 -1.83203,0.4668 v 0.002 h -0.002 c -0.44423,0.31944 -0.67579,0.79879 -0.67579,1.37696 0,0.48293 0.1516,0.883 0.46094,1.15039 v 0.002 h 0.002 c 0.31877,0.26564 0.85054,0.44509 1.61524,0.58789 l 0.82617,0.16992 h 0.002 c 1.00203,0.19066 1.72019,0.52623 2.16993,0.98438 h 0.002 c 0.4546,0.4546 0.68164,1.05776 0.68164,1.84765 0,0.94383 -0.30562,1.62342 -0.92383,2.09766 -0.6137,0.47404 -1.53753,0.72461 -2.78711,0.72461 -0.46697,0 -0.96811,-0.0534 -1.50195,-0.16016 -0.49233,-0.0993 -1.00748,-0.25264 -1.53711,-0.4414 v -1.01953 c 0.47641,0.24839 0.94874,0.47193 1.41211,0.60937 0.54907,0.16286 1.09283,0.2461 1.62695,0.2461 0.80633,0 1.44923,-0.15842 1.91602,-0.4961 0.46707,-0.33788 0.71093,-0.84507 0.71093,-1.45898 0,-0.53335 -0.1746,-0.97968 -0.51953,-1.29492 -0.3416,-0.31611 -0.86929,-0.53192 -1.58398,-0.67579 l -0.83594,-0.16211 h -0.002 c -1.00399,-0.20017 -1.71477,-0.51485 -2.13477,-0.91406 -0.42007,-0.39927 -0.63086,-0.94726 -0.63086,-1.6875 0,-0.85498 0.28905,-1.49957 0.87891,-1.98437 0.59556,-0.48496 1.4232,-0.73633 2.50586,-0.73633 z"
             id="path9589" />
        </g>
        <g
           id="path9562">
          <path
             style="color:#000000;stroke:none;-inkscape-stroke:none"
             d="m 136.4932,153.6717 h 6.41325 v 1.15493 h -5.04092 v 3.00282 h 4.83032 v 1.15493 h -4.83032 v 3.67539 h 5.16321 v 1.15493 h -6.53554 z"
             id="path9595" />
          <path
             style="color:#000000;stroke:none;-inkscape-stroke:none"
             d="m 136.31836,153.49805 v 0.17382 10.31641 h 6.88476 v -1.50195 h -5.16406 v -3.32813 h 4.83008 v -1.50195 h -4.83008 V 155 h 5.04102 v -1.50195 z m 0.34961,0.34765 h 6.06445 v 0.80664 h -5.04101 v 3.35157 h 4.83007 v 0.80664 h -4.83007 v 4.02343 h 5.16406 v 0.80664 h -6.1875 z"
             id="path9597" />
        </g>
        <g
           id="path9564">
          <path
             style="color:#000000;stroke:none;-inkscape-stroke:none"
             d="m 151.07927,158.97079 v 3.71615 h 2.20116 q 1.10738,0 1.63728,-0.45518 0.53671,-0.46197 0.53671,-1.40629 0,-0.95112 -0.53671,-1.3995 -0.5299,-0.45518 -1.63728,-0.45518 z m 0,-4.17133 v 3.05716 h 2.03132 q 1.00547,0 1.49461,-0.37365 0.49594,-0.38045 0.49594,-1.15493 0,-0.76769 -0.49594,-1.14814 -0.48914,-0.38044 -1.49461,-0.38044 z m -1.37232,-1.12776 h 3.50555 q 1.56934,0 2.41855,0.6522 0.84922,0.65219 0.84922,1.85468 0,0.93073 -0.4348,1.48102 -0.4348,0.55029 -1.27722,0.68617 1.01226,0.2174 1.56935,0.91035 0.56387,0.68617 0.56387,1.71881 0,1.35874 -0.92394,2.09925 -0.92394,0.74052 -2.62916,0.74052 h -3.64142 z"
             id="path9603" />
          <path
             style="color:#000000;stroke:none;-inkscape-stroke:none"
             d="m 149.5332,153.49805 v 0.17382 10.31641 h 3.81446 c 1.16198,0 2.08158,-0.25296 2.73828,-0.7793 0.65646,-0.52613 0.99023,-1.28912 0.99023,-2.23437 0,-0.72008 -0.20043,-1.33762 -0.60351,-1.82813 -0.3262,-0.40575 -0.83136,-0.61957 -1.36719,-0.79492 0.41847,-0.12781 0.82782,-0.26967 1.07617,-0.58398 0.31944,-0.40429 0.47266,-0.94228 0.47266,-1.58985 0,-0.8426 -0.31087,-1.52594 -0.91797,-1.99218 -0.60719,-0.46633 -1.45312,-0.6875 -2.52344,-0.6875 z m 0.34766,0.34765 h 3.33203 c 1.02213,0 1.78741,0.21196 2.3125,0.61524 0.5252,0.40334 0.78125,0.95608 0.78125,1.71679 0,0.59341 -0.13814,1.04557 -0.39844,1.375 -0.26031,0.32946 -0.63815,0.53564 -1.16797,0.6211 l -0.008,0.34179 c 0.64415,0.13835 1.12402,0.42082 1.46875,0.84961 h 0.002 v 0.002 c 0.34875,0.42438 0.5254,0.95065 0.5254,1.60742 0,0.8664 -0.28393,1.50168 -0.85938,1.96289 -0.57522,0.46103 -1.40985,0.70312 -2.52148,0.70312 h -3.4668 z m 1.02539,0.7793 v 0.17383 3.23242 h 2.20508 c 0.69185,0 1.22783,-0.12616 1.59961,-0.41016 0.37584,-0.28832 0.56445,-0.73952 0.56445,-1.29297 0,-0.54823 -0.18842,-0.99707 -0.5625,-1.28515 -4.2e-4,-3.3e-4 -0.002,3.3e-4 -0.002,0 -0.37164,-0.28839 -0.90815,-0.41797 -1.59961,-0.41797 z m 0.34766,0.34766 h 1.85742 c 0.64838,0 1.10621,0.12558 1.38672,0.34375 v 0.002 h 0.002 c 0.2858,0.21925 0.42773,0.53542 0.42773,1.00976 0,0.4792 -0.14232,0.79864 -0.42773,1.01758 -0.28041,0.21421 -0.7399,0.33789 -1.38867,0.33789 h -1.85742 z m -0.34766,3.82421 v 0.17383 3.89063 h 2.375 c 0.76208,0 1.35131,-0.15558 1.75,-0.49805 0.40221,-0.3462 0.59766,-0.87461 0.59766,-1.53711 0,-0.66577 -0.19468,-1.19347 -0.59766,-1.53125 -4.1e-4,-3.5e-4 -0.002,3.6e-4 -0.002,0 -0.39868,-0.34173 -0.98675,-0.49805 -1.74805,-0.49805 z m 0.34766,0.34766 h 2.02734 c 0.71442,0 1.2156,0.14963 1.52344,0.41406 h 0.002 c 0.31137,0.26013 0.47461,0.66622 0.47461,1.26758 0,0.5966 -0.16316,1.00368 -0.47656,1.27344 -0.30784,0.26443 -0.80902,0.41406 -1.52344,0.41406 h -2.02734 z"
             id="path9605" />
        </g>
      </g>
    </g>
  </g>
</svg>
